HIERARCHY
ROOT root
{
	OFFSET 0.000000 0.000000 0.000000
	CHANNELS 6 Xposition Yposition Zposition Zrotation Yrotation Xrotation
	JOINT lhip
	{
		OFFSET 0.058581 -0.082280 -0.017664
		CHANNELS 3 Zrotation Yrotation Xrotation
		JOINT lknee
		{
			OFFSET 0.043451 -0.386469 0.008037
			CHANNELS 3 Zrotation Yrotation Xrotation
			JOINT lankle
			{
				OFFSET -0.014790 -0.426874 -0.037428
				CHANNELS 3 Zrotation Yrotation Xrotation
				JOINT ltoe
				{
					OFFSET 0.041054 -0.060286 0.122042
					CHANNELS 3 Zrotation Yrotation Xrotation
					End Site
					{
						OFFSET 0.000000 0.000000 0.000000
					}
				}
			}
		}
	}
	JOINT rhip
	{
		OFFSET -0.060310 -0.090513 -0.013543
		CHANNELS 3 Zrotation Yrotation Xrotation
		JOINT rknee
		{
			OFFSET -0.043257 -0.383688 -0.004843
			CHANNELS 3 Zrotation Yrotation Xrotation
			JOINT rankle
			{
				OFFSET 0.019056 -0.420046 -0.034562
				CHANNELS 3 Zrotation Yrotation Xrotation
				JOINT rtoe
				{
					OFFSET -0.034840 -0.062106 0.130323
					CHANNELS 3 Zrotation Yrotation Xrotation
					End Site
					{
						OFFSET 0.000000 0.000000 0.000000
					}
				}
			}
		}
	}
	JOINT lowerback
	{
		OFFSET 0.004439 0.124404 -0.038385
		CHANNELS 3 Zrotation Yrotation Xrotation
		JOINT upperback
		{
			OFFSET 0.004488 0.137956 0.026820
			CHANNELS 3 Zrotation Yrotation Xrotation
			JOINT chest
			{
				OFFSET -0.002265 0.056032 0.002855
				CHANNELS 3 Zrotation Yrotation Xrotation
				JOINT lowerneck
				{
					OFFSET -0.013390 0.211636 -0.033468
					CHANNELS 3 Zrotation Yrotation Xrotation
					JOINT upperneck
					{
						OFFSET 0.010113 0.088937 0.050410
						CHANNELS 3 Zrotation Yrotation Xrotation
						End Site
						{
							OFFSET 0.000000 0.000000 0.000000
						}
					}
				}
				JOINT lclavicle
				{
					OFFSET 0.071702 0.114000 -0.018898
					CHANNELS 3 Zrotation Yrotation Xrotation
					JOINT lshoulder
					{
						OFFSET 0.122921 0.045205 -0.019046
						CHANNELS 3 Zrotation Yrotation Xrotation
						JOINT lelbow
						{
							OFFSET 0.255332 -0.015649 -0.022946
							CHANNELS 3 Zrotation Yrotation Xrotation
							JOINT lwrist
							{
								OFFSET 0.265709 0.012698 -0.007375
								CHANNELS 3 Zrotation Yrotation Xrotation
								End Site
								{
									OFFSET 0.000000 0.000000 0.000000
								}
							}
						}
					}
				}
				JOINT rclavicle
				{
					OFFSET -0.082954 0.112472 -0.023707
					CHANNELS 3 Zrotation Yrotation Xrotation
					JOINT rshoulder
					{
						OFFSET -0.113228 0.046853 -0.008472
						CHANNELS 3 Zrotation Yrotation Xrotation
						JOINT relbow
						{
							OFFSET -0.260127 -0.014369 -0.031269
							CHANNELS 3 Zrotation Yrotation Xrotation
							JOINT rwrist
							{
								OFFSET -0.269108 0.006794 -0.006027
								CHANNELS 3 Zrotation Yrotation Xrotation
								End Site
								{
									OFFSET 0.000000 0.000000 0.000000
								}
							}
						}
					}
				}
			}
		}
	}
}
MOTION
Frames: 11
Frame Time: 0.033333
-0.126573 0.905245 0.945787 -2.838943 1.193774 91.735575 15.523306 3.551129 -19.814854 -4.596371 -3.928585 22.528310 -7.951395 -0.623339 -9.214399 0.000000 -0.000000 0.000000 -9.167631 -0.969329 -25.571010 2.860584 -1.287109 34.258837 4.988652 5.309117 -15.162269 0.000000 -0.000000 0.000000 0.840556 -2.324447 24.643572 3.523728 -6.183152 3.310447 3.537018 -1.081530 -5.245720 -11.544870 29.926024 -16.610506 -2.617261 20.639314 1.428409 -21.884671 -31.143362 -2.312175 -58.678734 -29.101362 28.255819 3.963417 -54.598674 11.163119 24.005766 -17.926775 -18.032042 21.845274 19.266718 4.455931 35.416490 17.738562 12.327685 -56.558696 80.967950 -57.033387 -25.503533 9.256972 -55.106169 
-0.119653 0.903806 0.944827 -5.277711 1.201618 91.573246 15.717847 4.299441 -19.268636 -4.671590 -2.073236 23.211319 -7.722257 -0.586676 -9.184339 0.000000 -0.000000 0.000000 -9.361677 -0.241639 -26.162611 2.800974 -0.594656 34.580116 5.434774 6.214574 -15.252576 0.000000 -0.000000 0.000000 0.146762 -2.251316 24.404259 3.835260 -6.653376 3.126951 3.807444 -0.918659 -5.698480 -10.098377 31.657444 -12.531968 -3.827247 22.067475 -0.715522 -20.921447 -33.780927 -1.971875 -57.666148 -32.088814 28.864303 6.075575 -55.394851 6.971957 22.579509 -17.668898 -19.126354 19.928146 18.966960 3.594433 29.906668 17.739716 11.220900 -82.254961 82.404875 -81.560269 -25.182993 9.367631 -55.011285 
-0.112698 0.902514 0.943665 -7.383884 1.072827 91.464767 15.592474 5.009486 -18.920118 -5.023930 -1.276383 24.028569 -7.577582 0.017256 -9.832301 0.000000 -0.000000 0.000000 -9.538188 0.104756 -26.825051 2.895521 0.560673 35.079853 6.018474 6.452112 -15.958630 0.000000 -0.000000 0.000000 -0.214307 -2.404007 24.515873 3.820395 -7.068613 2.545681 3.949139 -1.149761 -5.427594 -9.840726 32.987108 -10.797158 -4.591530 23.479954 -2.153845 -18.855485 -35.819651 -2.588113 -56.774208 -35.112671 29.057184 7.751472 -56.342139 3.593344 20.982837 -16.812686 -20.520914 17.124492 18.850413 2.128525 24.890292 18.392075 9.825835 -105.399995 82.373387 -104.092559 -23.862669 9.591915 -54.763935 
-0.105983 0.900602 0.942282 -9.916769 0.794076 91.447684 15.220596 5.731089 -18.400085 -5.380711 -0.790714 24.687100 -7.218012 1.196308 -10.764521 0.000000 -0.000000 0.000000 -9.741477 0.495245 -27.775960 2.913169 1.702503 35.944819 6.455896 5.919997 -17.459885 0.000000 -0.000000 0.000000 -0.653751 -2.748354 24.775605 3.411749 -7.243860 1.735858 4.019855 -1.405897 -4.963300 -10.097225 34.063153 -9.779281 -5.166542 25.332616 -3.740460 -16.037391 -37.585130 -4.109338 -55.988843 -38.332120 29.466108 9.433350 -57.427111 -0.040018 19.729208 -15.946591 -23.670185 12.968207 18.741421 0.244883 19.259768 19.085741 8.090282 -125.657066 81.033454 -124.181295 -21.727042 9.356258 -55.237703 
-0.103764 0.899600 0.941363 -11.187619 0.596832 91.526028 15.017146 5.839476 -18.215961 -5.438385 -0.355746 25.010315 -6.956701 1.928473 -11.195874 0.000000 -0.000000 0.000000 -9.864543 0.544238 -28.416449 2.487411 1.645380 36.552705 5.712573 4.137381 -18.483164 0.000000 -0.000000 0.000000 -0.856084 -3.010655 24.919660 2.997868 -7.276273 1.088904 4.018934 -1.562951 -4.611598 -10.394374 34.320730 -9.368237 -5.328340 26.531102 -4.626965 -14.583551 -38.320963 -4.848540 -55.828051 -39.985579 29.750561 10.534819 -58.109807 -2.360618 19.735214 -15.485147 -25.867249 10.461101 18.619924 -0.685239 16.200523 19.274186 7.130300 -133.502332 79.901295 -131.979093 -20.780506 9.012058 -55.537479 
-0.103228 0.898289 0.940047 -12.493635 0.385675 91.530022 14.878578 5.735918 -17.972459 -5.416117 0.108968 25.448979 -6.698330 2.882388 -11.667159 0.000000 -0.000000 0.000000 -10.005856 0.277466 -29.014514 1.434591 0.677673 37.150728 4.376235 0.880232 -18.929518 0.000000 -0.000000 0.000000 -0.898338 -3.325477 25.155804 2.354913 -7.239957 0.362594 3.931998 -1.847593 -4.188530 -10.996122 34.063297 -9.028704 -5.480964 28.248665 -5.831316 -13.072196 -39.135758 -5.528551 -55.872381 -41.926230 30.193041 11.964716 -59.183312 -5.177276 20.930258 -14.634423 -28.643201 7.112669 18.352727 -1.908560 12.597493 19.183182 6.160103 -141.397805 78.182118 -139.945533 -20.481300 8.142316 -56.091848 
-0.105640 0.897167 0.938930 -13.497265 0.266981 91.524507 15.030655 5.746883 -17.708178 -5.460411 0.437209 25.775381 -6.625785 3.554436 -11.973109 0.000000 -0.000000 0.000000 -10.038638 0.005089 -29.458923 1.365966 0.480386 37.438215 4.576210 0.148769 -16.972355 0.000000 -0.000000 0.000000 -0.793036 -3.657971 25.252973 1.682060 -7.186062 -0.036601 3.749268 -2.081273 -3.974288 -11.593241 33.459473 -8.829254 -5.459918 29.838869 -6.833995 -12.119044 -39.819786 -6.264389 -56.484429 -43.163584 31.025041 13.280735 -60.351019 -7.575497 23.347327 -13.452167 -29.819878 4.137732 18.110507 -3.043342 9.528740 18.906595 5.342110 -147.392925 76.608651 -146.280128 -20.609224 7.275956 -56.621741 
-0.111381 0.896118 0.937832 -14.115893 0.156279 91.505250 15.392651 6.063746 -17.367638 -5.545631 0.679759 25.884716 -6.739930 3.655860 -12.097131 0.000000 -0.000000 0.000000 -9.943372 -0.159618 -29.954407 1.728418 0.808834 37.949102 5.449044 0.518444 -15.144484 0.000000 -0.000000 0.000000 -0.876700 -3.992091 25.227850 1.103561 -7.193011 -0.269530 3.575859 -2.201411 -3.880944 -11.874705 32.987296 -8.649922 -5.242663 31.131124 -7.313504 -11.546724 -40.457398 -6.716410 -57.690997 -43.839952 32.071917 15.185226 -61.485671 -9.692039 26.921605 -12.805323 -29.842747 1.701160 17.954084 -3.902695 7.256254 18.506641 4.498149 -151.108412 75.329267 -149.856751 -20.430705 7.207664 -56.576279 
-0.119599 0.894821 0.936745 -14.194015 0.097836 91.327473 15.914733 6.463027 -16.884084 -5.569554 0.752340 25.842156 -7.174765 3.223951 -12.063613 0.000000 -0.000000 0.000000 -9.867294 -0.285226 -30.072237 1.711550 0.206111 38.669482 5.821861 0.928248 -14.823665 0.000000 -0.000000 0.000000 -0.947715 -4.464608 25.276367 0.589323 -7.364962 -0.271894 3.418687 -2.340994 -3.978649 -11.960316 32.716133 -8.432765 -5.126162 32.211032 -7.694234 -11.236127 -41.036719 -6.884661 -59.214945 -43.940093 32.746478 18.483630 -62.348633 -11.957298 29.390983 -12.980233 -29.061414 -0.220330 17.997400 -4.483345 6.035891 18.006898 3.430452 -152.987000 74.290760 -150.741575 -19.168535 8.274855 -56.128559 
-0.131542 0.893356 0.935455 -13.673593 0.193660 91.121409 16.826400 6.748885 -16.550728 -5.628374 0.764546 25.992868 -7.635789 2.364198 -12.015043 0.000000 -0.000000 0.000000 -9.590937 -0.316535 -29.972630 1.941047 -0.825655 39.620249 5.518991 1.042354 -15.118347 0.000000 -0.000000 0.000000 -0.759252 -5.109594 25.010555 0.122623 -7.618898 0.293696 3.103741 -2.547720 -4.365368 -11.974425 32.466927 -8.192916 -5.073827 33.338921 -8.023248 -11.557503 -41.604462 -6.583611 -60.666853 -43.731238 32.813623 23.439310 -63.594429 -15.138482 29.808896 -13.279366 -28.326857 -1.667983 18.008337 -4.827103 5.646634 17.293432 2.019352 -152.529045 73.017927 -148.439474 -15.860584 10.347020 -55.387931 
-0.140853 0.892299 0.934286 -13.120353 0.172744 91.020731 17.331384 6.758426 -16.482400 -5.650870 0.655923 26.219586 -7.817795 1.936308 -12.111140 0.000000 -0.000000 0.000000 -9.311202 -0.258344 -30.016907 2.018084 -1.411101 40.593649 5.065109 0.852317 -15.723423 0.000000 -0.000000 0.000000 -0.749914 -5.499303 24.776066 -0.098699 -7.793174 0.581366 2.931333 -2.664689 -4.565258 -12.037443 32.447213 -7.915985 -5.146200 34.052886 -8.285503 -11.971943 -41.839034 -6.273717 -61.392571 -43.536324 32.710092 26.194916 -64.582944 -16.717413 29.986639 -13.472000 -27.968602 -2.411692 17.949440 -4.941572 6.060970 16.930028 1.383942 -151.971206 71.921795 -147.333569 -14.424584 10.734157 -56.453519 
